<svg width="35" height="28" viewBox="0 0 35 28" fill="none" xmlns="http://www.w3.org/2000/svg">
<path d="M27.2311 12.3561L15.6438 0.768851C15.1516 0.276568 14.4839 3.64042e-06 13.7877 0L2.625 0C1.17523 0 0 1.17523 0 2.625V13.7877C3.64042e-06 14.4839 0.276568 15.1516 0.768851 15.6438L12.3561 27.2311C13.3812 28.2563 15.0433 28.2563 16.0684 27.2311L27.2311 16.0684C28.2563 15.0433 28.2563 13.3813 27.2311 12.3561ZM6.125 8.75C4.67523 8.75 3.5 7.57476 3.5 6.125C3.5 4.67523 4.67523 3.5 6.125 3.5C7.57476 3.5 8.75 4.67523 8.75 6.125C8.75 7.57476 7.57476 8.75 6.125 8.75ZM34.2311 16.0684L23.0684 27.2311C22.0433 28.2563 20.3813 28.2563 19.3561 27.2311L19.3365 27.2115L28.8553 17.6926C29.7849 16.763 30.2969 15.527 30.2969 14.2123C30.2969 12.8976 29.7849 11.6616 28.8553 10.732L18.1233 0H20.7877C21.4839 3.64042e-06 22.1516 0.276568 22.6438 0.768851L34.2311 12.3561C35.2563 13.3813 35.2563 15.0433 34.2311 16.0684Z" fill="#919AA2"/>
</svg>
